# xmcd
#
# Track frame offsets:
#	150
#	12773
#	24597
#	37506
#	50277
#	60457
#	73514
#	82597
#	98597
#	114883
#	130564
#	139284
#
# Disc length: 1948
#
# Revision: 2
# Processed by: cddbd v1.5.1PL0 Copyright (c) Steve Scherf et al.
# Submitted via: audiograbber 1.80.04
# Normalized: r1:DSETVAR1
#
DISCID=7e079a0c
DTITLE=Various Artist - Forever Country
DYEAR=1900
DGENRE=
TTITLE0=Oak Ridge Boys - In the Shelter of His Arms
TTITLE1=Johnny Preston - Running Bear
TTITLE2=Billie Jo Spears - Dallas
TTITLE3=Porter Wagner - Satisfied Mind
TTITLE4=Faron Young - Hello Walls
TTITLE5=Kenny Rogers - Ruby, Don't Take your Love
TTITLE6=Frankie Lane - Rawhide
TTITLE7=Karl Denver Trio - Careless Love
TTITLE8=Lynn Anderson - Devil Went Down to Georgia
TTITLE9=Mickey Gilley - A Fool For Your Love
TTITLE10=Waylon Jennings - Abilene
TTITLE11=George Jones - Wants of a Woman
EXTD=
EXTT0=
EXTT1=
EXTT2=
EXTT3=
EXTT4=
EXTT5=
EXTT6=
EXTT7=
EXTT8=
EXTT9=
EXTT10=
EXTT11=
PLAYORDER=
